<?xml version="1.0" encoding="UTF-8" standalone="no"?>
<!DOCTYPE svg PUBLIC "-//W3C//DTD SVG 1.1//EN"
 "http://www.w3.org/Graphics/SVG/1.1/DTD/svg11.dtd">
<!-- Generated by graphviz version 2.30.1 (20130214.1330)
 -->
<!-- Title: G Pages: 1 -->
<svg width="452pt" height="1446pt"
 viewBox="0.00 0.00 452.00 1446.00" xmlns="http://www.w3.org/2000/svg" xmlns:xlink="http://www.w3.org/1999/xlink">
<g id="graph0" class="graph" transform="scale(1 1) rotate(0) translate(4 1442)">
<title>G</title>
<polygon fill="white" stroke="white" points="-4,5 -4,-1442 449,-1442 449,5 -4,5"/>
<g id="clust1" class="cluster"><title>cluster_Global</title>
<path fill="none" stroke="gray" d="M220,-8C220,-8 424,-8 424,-8 430,-8 436,-14 436,-20 436,-20 436,-1418 436,-1418 436,-1424 430,-1430 424,-1430 424,-1430 220,-1430 220,-1430 214,-1430 208,-1424 208,-1418 208,-1418 208,-20 208,-20 208,-14 214,-8 220,-8"/>
<text text-anchor="middle" x="322" y="-1417.2" font-family="Times New Roman,serif" font-size="11.00" fill="gray">Global</text>
</g>
<!-- \\EDD_Front_End_Submissions -->
<g id="node1" class="node"><title>\\EDD_Front_End_Submissions</title>
<polygon fill="none" stroke="black" points="414.5,-1402 229.5,-1402 229.5,-1366 414.5,-1366 414.5,-1402"/>
<text text-anchor="middle" x="322" y="-1381.2" font-family="Courier,monospace" font-size="11.00">EDD_Front_End_Submissions</text>
</g>
<!-- \\FES_Install -->
<g id="node2" class="node"><title>\\FES_Install</title>
<polygon fill="none" stroke="black" points="367.5,-1348 276.5,-1348 276.5,-1312 367.5,-1312 367.5,-1348"/>
<text text-anchor="middle" x="322" y="-1327.2" font-family="Courier,monospace" font-size="11.00">FES_Install</text>
</g>
<!-- \\FES_Menu -->
<g id="node3" class="node"><title>\\FES_Menu</title>
<polygon fill="none" stroke="black" points="357.5,-1294 286.5,-1294 286.5,-1258 357.5,-1258 357.5,-1294"/>
<text text-anchor="middle" x="322" y="-1273.2" font-family="Courier,monospace" font-size="11.00">FES_Menu</text>
</g>
<!-- \\FES_Settings -->
<g id="node4" class="node"><title>\\FES_Settings</title>
<polygon fill="none" stroke="black" points="371,-1240 273,-1240 273,-1204 371,-1204 371,-1240"/>
<text text-anchor="middle" x="322" y="-1219.2" font-family="Courier,monospace" font-size="11.00">FES_Settings</text>
</g>
<!-- \\FES_Tools -->
<g id="node5" class="node"><title>\\FES_Tools</title>
<polygon fill="none" stroke="black" points="360.5,-1186 283.5,-1186 283.5,-1150 360.5,-1150 360.5,-1186"/>
<text text-anchor="middle" x="322" y="-1165.2" font-family="Courier,monospace" font-size="11.00">FES_Tools</text>
</g>
<!-- \\FES_Tracking -->
<g id="node6" class="node"><title>\\FES_Tracking</title>
<polygon fill="none" stroke="black" points="371,-1132 273,-1132 273,-1096 371,-1096 371,-1132"/>
<text text-anchor="middle" x="322" y="-1111.2" font-family="Courier,monospace" font-size="11.00">FES_Tracking</text>
</g>
<!-- \\FES_Welcome -->
<g id="node7" class="node"><title>\\FES_Welcome</title>
<polygon fill="none" stroke="black" points="367.5,-1078 276.5,-1078 276.5,-1042 367.5,-1042 367.5,-1078"/>
<text text-anchor="middle" x="322" y="-1057.2" font-family="Courier,monospace" font-size="11.00">FES_Welcome</text>
</g>
<!-- \\FES_Download_Table -->
<g id="node8" class="node"><title>\\FES_Download_Table</title>
<polygon fill="none" stroke="black" points="391,-1024 253,-1024 253,-988 391,-988 391,-1024"/>
<text text-anchor="middle" x="322" y="-1003.2" font-family="Courier,monospace" font-size="11.00">FES_Download_Table</text>
</g>
<!-- \\FES_Edit_Download -->
<g id="node9" class="node"><title>\\FES_Edit_Download</title>
<polygon fill="none" stroke="black" points="387.5,-970 256.5,-970 256.5,-934 387.5,-934 387.5,-970"/>
<text text-anchor="middle" x="322" y="-949.2" font-family="Courier,monospace" font-size="11.00">FES_Edit_Download</text>
</g>
<!-- \\FES_Formbuilder_Templates -->
<g id="node10" class="node"><title>\\FES_Formbuilder_Templates</title>
<polygon fill="none" stroke="black" points="414.5,-916 229.5,-916 229.5,-880 414.5,-880 414.5,-916"/>
<text text-anchor="middle" x="322" y="-895.2" font-family="Courier,monospace" font-size="11.00">FES_Formbuilder_Templates</text>
</g>
<!-- \\FES_Customers_Export -->
<g id="node11" class="node"><title>\\FES_Customers_Export</title>
<polygon fill="none" stroke="black" points="398,-862 246,-862 246,-826 398,-826 398,-862"/>
<text text-anchor="middle" x="322" y="-841.2" font-family="Courier,monospace" font-size="11.00">FES_Customers_Export</text>
</g>
<!-- \\EDD_Export -->
<g id="node27" class="node"><title>\\EDD_Export</title>
<ellipse fill="none" stroke="black" cx="72" cy="-844" rx="61.1893" ry="18"/>
<text text-anchor="middle" x="72" y="-840.3" font-family="Times New Roman,serif" font-size="14.00" fill="gray">\EDD_Export</text>
</g>
<!-- \\FES_Customers_Export&#45;&gt;\\EDD_Export -->
<g id="edge1" class="edge"><title>\\FES_Customers_Export&#45;&gt;\\EDD_Export</title>
<path fill="none" stroke="black" d="M245.919,-844C213.372,-844 175.471,-844 143.461,-844"/>
<polygon fill="none" stroke="black" points="143.29,-840.5 133.29,-844 143.29,-847.5 143.29,-840.5"/>
</g>
<!-- \\FES_Vendor_Table -->
<g id="node12" class="node"><title>\\FES_Vendor_Table</title>
<polygon fill="none" stroke="black" points="384.5,-808 259.5,-808 259.5,-772 384.5,-772 384.5,-808"/>
<text text-anchor="middle" x="322" y="-787.2" font-family="Courier,monospace" font-size="11.00">FES_Vendor_Table</text>
</g>
<!-- \\WP_List_Table -->
<g id="node28" class="node"><title>\\WP_List_Table</title>
<ellipse fill="none" stroke="black" cx="72" cy="-790" rx="71.4873" ry="18"/>
<text text-anchor="middle" x="72" y="-786.3" font-family="Times New Roman,serif" font-size="14.00" fill="gray">\WP_List_Table</text>
</g>
<!-- \\FES_Vendor_Table&#45;&gt;\\WP_List_Table -->
<g id="edge2" class="edge"><title>\\FES_Vendor_Table&#45;&gt;\\WP_List_Table</title>
<path fill="none" stroke="black" d="M259.378,-790C227.389,-790 187.912,-790 153.537,-790"/>
<polygon fill="none" stroke="black" points="153.518,-786.5 143.518,-790 153.518,-793.5 153.518,-786.5"/>
</g>
<!-- \\FES_DB_Vendors -->
<g id="node13" class="node"><title>\\FES_DB_Vendors</title>
<polygon fill="none" stroke="black" points="377.5,-754 266.5,-754 266.5,-718 377.5,-718 377.5,-754"/>
<text text-anchor="middle" x="322" y="-733.2" font-family="Courier,monospace" font-size="11.00">FES_DB_Vendors</text>
</g>
<!-- \\EDD_DB -->
<g id="node29" class="node"><title>\\EDD_DB</title>
<ellipse fill="none" stroke="black" cx="72" cy="-736" rx="48.1917" ry="18"/>
<text text-anchor="middle" x="72" y="-732.3" font-family="Times New Roman,serif" font-size="14.00" fill="gray">\EDD_DB</text>
</g>
<!-- \\FES_DB_Vendors&#45;&gt;\\EDD_DB -->
<g id="edge3" class="edge"><title>\\FES_DB_Vendors&#45;&gt;\\EDD_DB</title>
<path fill="none" stroke="black" d="M266.268,-736C226.03,-736 171.462,-736 130.57,-736"/>
<polygon fill="none" stroke="black" points="130.486,-732.5 120.486,-736 130.486,-739.5 130.486,-732.5"/>
</g>
<!-- \\FES_Emails -->
<g id="node14" class="node"><title>\\FES_Emails</title>
<polygon fill="none" stroke="black" points="364,-700 280,-700 280,-664 364,-664 364,-700"/>
<text text-anchor="middle" x="322" y="-679.2" font-family="Courier,monospace" font-size="11.00">FES_Emails</text>
</g>
<!-- \\FES_Helpers -->
<g id="node15" class="node"><title>\\FES_Helpers</title>
<polygon fill="none" stroke="black" points="367.5,-646 276.5,-646 276.5,-610 367.5,-610 367.5,-646"/>
<text text-anchor="middle" x="322" y="-625.2" font-family="Courier,monospace" font-size="11.00">FES_Helpers</text>
</g>
<!-- \\FES_Integrations -->
<g id="node16" class="node"><title>\\FES_Integrations</title>
<polygon fill="none" stroke="black" points="384.5,-592 259.5,-592 259.5,-556 384.5,-556 384.5,-592"/>
<text text-anchor="middle" x="322" y="-571.2" font-family="Courier,monospace" font-size="11.00">FES_Integrations</text>
</g>
<!-- \\FES_Post_Types -->
<g id="node17" class="node"><title>\\FES_Post_Types</title>
<polygon fill="none" stroke="black" points="377.5,-538 266.5,-538 266.5,-502 377.5,-502 377.5,-538"/>
<text text-anchor="middle" x="322" y="-517.2" font-family="Courier,monospace" font-size="11.00">FES_Post_Types</text>
</g>
<!-- \\FES_Setup -->
<g id="node18" class="node"><title>\\FES_Setup</title>
<polygon fill="none" stroke="black" points="360.5,-484 283.5,-484 283.5,-448 360.5,-448 360.5,-484"/>
<text text-anchor="middle" x="322" y="-463.2" font-family="Courier,monospace" font-size="11.00">FES_Setup</text>
</g>
<!-- \\FES_Vendor -->
<g id="node19" class="node"><title>\\FES_Vendor</title>
<polygon fill="none" stroke="black" points="364,-430 280,-430 280,-394 364,-394 364,-430"/>
<text text-anchor="middle" x="322" y="-409.2" font-family="Courier,monospace" font-size="11.00">FES_Vendor</text>
</g>
<!-- \\FES_Vendors -->
<g id="node20" class="node"><title>\\FES_Vendors</title>
<polygon fill="none" stroke="black" points="367.5,-376 276.5,-376 276.5,-340 367.5,-340 367.5,-376"/>
<text text-anchor="middle" x="322" y="-355.2" font-family="Courier,monospace" font-size="11.00">FES_Vendors</text>
</g>
<!-- \\FES_Dashboard -->
<g id="node21" class="node"><title>\\FES_Dashboard</title>
<polygon fill="none" stroke="black" points="374,-322 270,-322 270,-286 374,-286 374,-322"/>
<text text-anchor="middle" x="322" y="-301.2" font-family="Courier,monospace" font-size="11.00">FES_Dashboard</text>
</g>
<!-- \\FES_Forms -->
<g id="node22" class="node"><title>\\FES_Forms</title>
<polygon fill="none" stroke="black" points="360.5,-268 283.5,-268 283.5,-232 360.5,-232 360.5,-268"/>
<text text-anchor="middle" x="322" y="-247.2" font-family="Courier,monospace" font-size="11.00">FES_Forms</text>
</g>
<!-- \\FES_Templates -->
<g id="node23" class="node"><title>\\FES_Templates</title>
<polygon fill="none" stroke="black" points="374,-214 270,-214 270,-178 374,-178 374,-214"/>
<text text-anchor="middle" x="322" y="-193.2" font-family="Courier,monospace" font-size="11.00">FES_Templates</text>
</g>
<!-- \\FES_Vendor_Shop -->
<g id="node24" class="node"><title>\\FES_Vendor_Shop</title>
<polygon fill="none" stroke="black" points="381,-160 263,-160 263,-124 381,-124 381,-160"/>
<text text-anchor="middle" x="322" y="-139.2" font-family="Courier,monospace" font-size="11.00">FES_Vendor_Shop</text>
</g>
<!-- \\FES_Walker_Category_Multi -->
<g id="node25" class="node"><title>\\FES_Walker_Category_Multi</title>
<polygon fill="none" stroke="black" points="414.5,-106 229.5,-106 229.5,-70 414.5,-70 414.5,-106"/>
<text text-anchor="middle" x="322" y="-85.2" font-family="Courier,monospace" font-size="11.00">FES_Walker_Category_Multi</text>
</g>
<!-- \\Walker -->
<g id="node30" class="node"><title>\\Walker</title>
<ellipse fill="none" stroke="black" cx="72" cy="-61" rx="38.9931" ry="18"/>
<text text-anchor="middle" x="72" y="-57.3" font-family="Times New Roman,serif" font-size="14.00" fill="gray">\Walker</text>
</g>
<!-- \\FES_Walker_Category_Multi&#45;&gt;\\Walker -->
<g id="edge4" class="edge"><title>\\FES_Walker_Category_Multi&#45;&gt;\\Walker</title>
<path fill="none" stroke="black" d="M229.359,-78.0229C192.293,-73.9875 151.079,-69.5005 120.274,-66.1467"/>
<polygon fill="none" stroke="black" points="120.567,-62.658 110.247,-65.0551 119.809,-69.6169 120.567,-62.658"/>
</g>
<!-- \\FES_Walker_Category_Checklist -->
<g id="node26" class="node"><title>\\FES_Walker_Category_Checklist</title>
<polygon fill="none" stroke="black" points="428,-52 216,-52 216,-16 428,-16 428,-52"/>
<text text-anchor="middle" x="322" y="-31.2" font-family="Courier,monospace" font-size="11.00">FES_Walker_Category_Checklist</text>
</g>
<!-- \\FES_Walker_Category_Checklist&#45;&gt;\\Walker -->
<g id="edge5" class="edge"><title>\\FES_Walker_Category_Checklist&#45;&gt;\\Walker</title>
<path fill="none" stroke="black" d="M215.826,-45.4504C182.463,-49.0826 147.239,-52.9175 120.119,-55.8701"/>
<polygon fill="none" stroke="black" points="119.705,-52.3944 110.143,-56.9562 120.463,-59.3533 119.705,-52.3944"/>
</g>
</g>
</svg>
